Coordinates
version=1
nRows=11
nColumns=26
inDegrees=yes

Units are S.I. units (second, meters, Newtons, ...)
If the header above contains a line with 'inDegrees', this indicates whether rotational values are in degrees (yes) or radians (no).

endheader
time	pelvis_tilt	pelvis_list	pelvis_rotation	pelvis_tx	pelvis_ty	pelvis_tz	hip_flexion_r	hip_adduction_r	hip_rotation_r	knee_angle_r	knee_angle_r_beta	hip_flexion_l	hip_adduction_l	hip_rotation_l	knee_angle_l	knee_angle_l_beta	lumbar_extension	lumbar_bending	lumbar_rotation	ankle_angle_r	subtalar_angle_r	mtp_angle_r	ankle_angle_l	subtalar_angle_l	mtp_angle_l
      0.69000000	     -1.73437337	      8.79063087	      0.40096439	     -0.34592542	      0.80998464	      0.17527513	     -1.26669811	    -20.56336666	     -9.69239872	     62.36877247	      1.08854043	     26.02045371	     11.81375436	     -5.99928459	     35.59161706	      0.62119090	    -13.65141763	    -12.58212471	     10.92165816	    -32.97500847	    -16.74816752	      0.00000000	     15.63371218	     -9.10336202	      0.00000000
      0.70000000	     -1.94453782	      9.10642992	      1.12185014	     -0.33254957	      0.81218345	      0.17351484	      1.60909189	    -20.71543696	     -8.32940837	     65.36570193	      1.14084672	     24.73961479	     12.61473656	     -5.25072084	     34.92034679	      0.60947503	    -13.76249356	    -12.73845587	     10.40787593	    -31.25138309	    -16.59351586	      0.00000000	     16.16393361	     -8.87707983	      0.00000000
      0.71000000	     -2.15563967	      9.37390049	      1.86843571	     -0.31927788	      0.81461064	      0.17194205	      4.45696398	    -20.84214625	     -7.26112804	     67.96641949	      1.18623780	     23.34458463	     13.29687274	     -4.54544087	     34.08580427	      0.59490951	    -13.85421955	    -12.80838289	      9.76216423	    -29.16073345	    -16.38873563	      0.00000000	     16.60994896	     -8.46822444	      0.00000000
      0.72000000	     -2.28533280	      9.46436649	      2.69651825	     -0.30617061	      0.81748289	      0.17062283	      7.08390193	    -20.70236898	     -6.44775132	     69.96266788	      1.22107891	     21.71870428	     13.77511021	     -3.65879394	     33.00437679	      0.57603504	    -14.08894230	    -12.74708487	      9.08432817	    -27.07856864	    -16.28533574	      0.00000000	     17.13799416	     -7.92173849	      0.00000000
      0.73000000	     -2.42750368	      9.53239004	      3.58154893	     -0.29301023	      0.82040299	      0.16936746	      9.65207165	    -20.72372567	     -6.08728626	     71.58777334	      1.24944235	     20.04283900	     14.15578252	     -2.84100819	     31.85451542	      0.55596618	    -14.19975046	    -12.61653565	      8.17154637	    -24.87239526	    -15.87379022	      0.00000000	     17.38913480	     -7.27071533	      0.00000000
      0.74000000	     -2.50394421	      9.38692057	      4.49156058	     -0.27991771	      0.82364751	      0.16835525	     12.02091136	    -20.45786496	     -5.94164245	     72.60614007	      1.26721620	     18.19234895	     14.22816453	     -2.01432725	     30.50085259	      0.53234030	    -14.37777085	    -12.26104754	      7.54452890	    -23.18375633	    -16.00999127	      0.00000000	     17.68570386	     -6.48693387	      0.00000000
      0.75000000	     -2.55435243	      9.43966716	      5.69853915	     -0.26670620	      0.82685023	      0.16710364	     14.11723268	    -20.70309002	     -6.40181002	     73.28157599	      1.27900478	     16.19828467	     14.53098196	     -0.96878412	     29.02891503	      0.50665015	    -14.66961569	    -12.07524776	      5.89738645	    -20.80410045	    -15.23944930	      0.00000000	     17.79151369	     -5.67366832	      0.00000000
      0.76000000	     -2.68443057	      9.17056214	      6.71395948	     -0.25353463	      0.83002728	      0.16630190	     16.32098930	    -20.49093957	     -6.77742509	     73.44220324	      1.28180826	     14.31646792	     14.32638461	     -0.19392271	     27.49242573	      0.47983335	    -14.72718735	    -11.59981384	      5.25032904	    -19.36536404	    -15.36408275	      0.00000000	     17.87908025	     -4.72202382	      0.00000000
      0.77000000	     -2.42214626	      9.06422596	      8.12744129	     -0.24016605	      0.83359013	      0.16515153	     17.68775203	    -20.76485812	     -7.95488191	     73.16010574	      1.27688473	     11.80910639	     14.29952902	      1.15694080	     25.73381490	      0.44913980	    -15.32895732	    -11.18210656	      3.18190561	    -17.19952928	    -14.66600530	      0.00000000	     17.93278390	     -3.71091365	      0.00000000
      0.78000000	     -2.28384988	      8.78407013	      9.39507324	     -0.22676131	      0.83687496	      0.16425460	     19.17788232	    -20.82020021	     -9.04512194	     72.47220595	      1.26487861	      9.49046373	     13.95098846	      2.29681808	     23.94851339	      0.41798041	    -15.67106287	    -10.62520614	      1.77601280	    -15.52894382	    -14.37365636	      0.00000000	     17.91111433	     -2.70263766	      0.00000000
      0.79000000	     -2.53336488	      8.39277062	     10.40557577	     -0.21352657	      0.83942679	      0.16380631	     21.25145794	    -20.67506729	     -9.74314289	     71.52158337	      1.24828712	      7.78946777	     13.38781859	      2.84127450	     22.32294613	      0.38960891	    -15.49644764	    -10.12836960	      1.19697154	    -14.32509576	    -14.43386161	      0.00000000	     17.71396392	     -1.67411419	      0.00000000
